{
  "accessors": [
    {
      "bufferView": 2,
      "componentType": 5126,
      "count": 11437,
      "max": [
        29.784711837768555,
        0.2104489952325821,
        29.31896209716797
      ],
      "min": [
        -35.302127838134766,
        -104.49053955078125,
        -1.4375100135803223
      ],
      "type": "VEC3"
    },
    {
      "bufferView": 2,
      "byteOffset": 137244,
      "componentType": 5126,
      "count": 11437,
      "max": [
        1.0,
        1.0,
        1.0
      ],
      "min": [
        -0.9999639987945557,
        -1.0,
        -1.0
      ],
      "type": "VEC3"
    },
    {
      "bufferView": 1,
      "componentType": 5126,
      "count": 11437,
      "max": [
        0.9969040155410767,
        0.9901090264320374
      ],
      "min": [
        0.0027570000384002924,
        8.199999865610152e-05
      ],
      "type": "VEC2"
    },
    {
      "bufferView": 0,
      "componentType": 5125,
      "count": 45117,
      "type": "SCALAR"
    }
  ],
  "asset": {
    "extras": {
      "author": "mRiot (https://sketchfab.com/malgorzatariot)",
      "license": "CC-BY-4.0 (http://creativecommons.org/licenses/by/4.0/)",
      "source": "https://sketchfab.com/3d-models/forest-diorama-1e89d7e0312b4cb48f5e2364692e76ac",
      "title": "Forest Diorama"
    },
    "generator": "Sketchfab-12.67.0",
    "version": "2.0"
  },
  "bufferViews": [
    {
      "buffer": 0,
      "byteLength": 180468,
      "name": "floatBufferViews",
      "target": 34963
    },
    {
      "buffer": 0,
      "byteLength": 91496,
      "byteOffset": 180468,
      "byteStride": 8,
      "name": "floatBufferViews",
      "target": 34962
    },
    {
      "buffer": 0,
      "byteLength": 274488,
      "byteOffset": 271964,
      "byteStride": 12,
      "name": "floatBufferViews",
      "target": 34962
    }
  ],
  "buffers": [
    {
      "byteLength": 546452,
      "uri": "scene.bin"
    }
  ],
  "images": [
    {
      "uri": "textures/ROUND_ATLAS_baseColor.png"
    },
    {
      "uri": "textures/ROUND_ATLAS_metallicRoughness.png"
    }
  ],
  "materials": [
    {
      "doubleSided": true,
      "name": "ROUND_ATLAS",
      "occlusionTexture": {
        "index": 1,
        "strength": 0.0077902219
      },
      "pbrMetallicRoughness": {
        "baseColorTexture": {
          "index": 0
        },
        "metallicFactor": 0.0,
        "metallicRoughnessTexture": {
          "index": 1
        }
      }
    }
  ],
  "meshes": [
    {
      "name": "Object_0",
      "primitives": [
        {
          "attributes": {
            "NORMAL": 1,
            "POSITION": 0,
            "TEXCOORD_0": 2
          },
          "indices": 3,
          "material": 0,
          "mode": 4
        }
      ]
    }
  ],
  "nodes": [
    {
      "children": [
        1
      ],
      "matrix": [
        1.0,
        0.0,
        0.0,
        0.0,
        0.0,
        2.220446049250313e-16,
        -1.0,
        0.0,
        0.0,
        1.0,
        2.220446049250313e-16,
        0.0,
        0.0,
        0.0,
        0.0,
        1.0
      ],
      "name": "Sketchfab_model"
    },
    {
      "children": [
        2
      ],
      "name": "round screne2.obj.cleaner.materialmerger.gles"
    },
    {
      "mesh": 0,
      "name": "Object_2"
    }
  ],
  "samplers": [
    {
      "magFilter": 9729,
      "minFilter": 9987,
      "wrapS": 10497,
      "wrapT": 10497
    }
  ],
  "scene": 0,
  "scenes": [
    {
      "name": "Sketchfab_Scene",
      "nodes": [
        0
      ]
    }
  ],
  "textures": [
    {
      "sampler": 0,
      "source": 0
    },
    {
      "sampler": 0,
      "source": 1
    }
  ]
}
